<svg version="1.1" xmlns="http://www.w3.org/2000/svg" viewBox="0 0 320 320">
<path fill="#141216" d="
M130.007996,272.837494 
	C93.680473,272.886963 57.352863,272.914276 21.025518,273.026093 
	C17.971395,273.035492 16.967201,271.845276 16.974886,268.886963 
	C17.040268,243.723038 17.086529,218.558395 16.934830,193.395203 
	C16.909468,189.188217 19.063845,188.960556 22.243607,188.970261 
	C42.907993,189.033386 63.603405,188.326996 84.225067,189.267227 
	C95.561569,189.784103 104.879242,186.089676 114.224724,180.905029 
	C125.102844,174.870117 136.033905,168.929596 146.979828,163.018158 
	C165.811218,152.848083 184.671890,142.732208 203.743713,132.082611 
	C203.967163,131.571655 204.084000,131.134384 204.520721,131.076614 
	C209.062103,131.468567 208.445068,128.507111 208.446411,126.098259 
	C208.460938,100.116386 208.450485,74.134483 208.446854,48.152596 
	C239.247086,48.105911 270.047455,48.094940 300.847321,47.962109 
	C304.253693,47.947414 305.041565,49.420090 305.032776,52.479763 
	C304.960907,77.454025 304.930664,102.428955 305.071381,127.402641 
	C305.090118,130.723709 303.719666,132.005981 300.846619,132.966370 
	C277.121765,140.897171 253.422852,148.906250 229.737915,156.955841 
	C198.999161,167.402695 168.280472,177.908585 136.931488,188.744904 
	C134.301468,189.570755 132.293091,190.040741 130.162048,190.539444 
	C130.071121,192.039749 129.982590,193.500854 129.549408,195.220978 
	C129.141251,219.289017 129.069992,243.098068 129.051575,266.907135 
	C129.051025,267.618805 129.604294,268.330963 129.941742,269.420868 
	C129.992096,270.811737 130.000046,271.824615 130.007996,272.837494 
z"/>
<path fill="#6300FF" d="
M207.948700,48.092831 
	C208.450485,74.134483 208.460938,100.116386 208.446411,126.098259 
	C208.445068,128.507111 209.062103,131.468567 204.048737,131.029327 
	C154.230408,131.023788 105.320778,130.995728 56.411148,130.999908 
	C43.603905,131.001007 30.796667,131.102234 17.989426,131.157471 
	C17.661110,129.948059 17.048727,128.739212 17.046310,127.529152 
	C16.995056,101.890770 17.010790,76.252243 17.025936,50.613747 
	C17.026316,49.970566 17.168146,49.327465 17.320824,48.033066 
	C80.733704,48.033066 144.092117,48.033066 207.948700,48.092831 
z"/>
<path fill="#FF4400" d="
M129.894043,194.961960 
	C129.982590,193.500854 130.071121,192.039749 130.162048,190.539444 
	C132.293091,190.040741 134.301468,189.570755 136.715958,189.025482 
	C137.122086,188.950195 137.456818,189.141907 138.035141,189.368774 
	C141.097977,189.732513 143.582413,189.987091 146.067032,189.988937 
	C198.990402,190.028275 251.913773,190.039230 304.837158,190.055695 
	C304.837158,217.484344 304.837158,244.913010 304.837158,272.960022 
	C246.675293,272.960022 188.807388,272.960022 130.473740,272.898743 
	C130.000046,271.824615 129.992096,270.811737 130.139893,269.054138 
	C130.528168,266.848846 130.960205,265.388702 130.963226,263.927612 
	C131.007263,242.697357 131.019791,221.466888 130.946533,200.236801 
	C130.940460,198.477325 130.260757,196.720184 129.894043,194.961960 
z"/>
<path fill="#360975" d="
M18.325682,131.401733 
	C30.796667,131.102234 43.603905,131.001007 56.411148,130.999908 
	C105.320778,130.995728 154.230408,131.023788 203.612015,131.087097 
	C204.084000,131.134384 203.967163,131.571655 203.901733,131.788208 
	C144.429871,132.003189 85.023438,132.005585 25.617020,131.985062 
	C23.298618,131.984253 20.980295,131.763977 18.325682,131.401733 
z"/>
<path fill="#C13504" d="
M304.605652,189.708435 
	C251.913773,190.039230 198.990402,190.028275 146.067032,189.988937 
	C143.582413,189.987091 141.097977,189.732513 138.217987,189.430145 
	C139.479156,189.176666 141.135773,189.012177 142.792435,189.011734 
	C195.004333,188.998093 247.216232,188.997086 299.428131,189.015427 
	C301.076813,189.016006 302.725464,189.240875 304.605652,189.708435 
z"/>
<path fill="#F54100" d="
M129.549408,195.220978 
	C130.260757,196.720184 130.940460,198.477325 130.946533,200.236801 
	C131.019791,221.466888 131.007263,242.697357 130.963226,263.927612 
	C130.960205,265.388702 130.528168,266.848846 130.097504,268.676147 
	C129.604294,268.330963 129.051025,267.618805 129.051575,266.907135 
	C129.069992,243.098068 129.141251,219.289017 129.549408,195.220978 
z"/>
</svg>
